# xmcd
#
# Track frame offsets: 
#        150
#        15355
#        27009
#        50695
#        71597
#        95833
#        113247
#        134613
#        154453
#        171101
#        190236
#        216962
#        244971
#        262985
#        282604
#
# Disc length: 4063 seconds
#
# Revision: 0
# Processed by: cddbd v1.5.2PL0 Copyright (c) Steve Scherf et al.
# Submitted via: ExactAudioCopyFreeDBPlugin 1.0
#
DISCID=e30fdd0f
DTITLE=พงษ์สิทธิ์ คำภีร์ - 30th Anniversary Kampee Disc 1
DYEAR=1900
DGENRE=ไทยเพื่อชีวิต
TTITLE0=ถึงเพื่อน
TTITLE1=ตลอดเวลา
TTITLE2=แค่นั้น
TTITLE3=นักแสวงหา
TTITLE4=รักเดียว 2558
TTITLE5=ทองดีทองเค
TTITLE6=ยอดชาย
TTITLE7=แม่
TTITLE8=ถามยาย
TTITLE9=เหงา
TTITLE10=อยู่ตรงนี้
TTITLE11=เสมอ
TTITLE12=กูเป็นนักศึกษา
TTITLE13=หวัง
TTITLE14=แกเพื่อนฉัน
EXTD=
EXTT0=
EXTT1=
EXTT2=
EXTT3=
EXTT4=
EXTT5=
EXTT6=
EXTT7=
EXTT8=
EXTT9=
EXTT10=
EXTT11=
EXTT12=
EXTT13=
EXTT14=
PLAYORDER=
